<svg width="696" height="600" viewBox="0 0 696 600" fill="none" xmlns="http://www.w3.org/2000/svg">
<rect width="696" height="600" rx="12" fill="#191826"/>
<mask id="mask0_0_82" style="mask-type:luminance" maskUnits="userSpaceOnUse" x="0" y="0" width="696" height="600">
<rect width="696" height="600" rx="12" fill="white"/>
</mask>
<g mask="url(#mask0_0_82)">
<path d="M369 109C369 70.3401 400.34 39 439 39C477.66 39 509 70.3401 509 109V249H469C413.772 249 369 204.228 369 149V109Z" fill="#66E2DC"/>
<rect x="299" y="39" width="70" height="70" rx="35" fill="#FCFAF9"/>
<rect x="229" y="-31" width="70" height="140" rx="35" fill="#66E2DC"/>
<rect x="229" y="109" width="140" height="140" rx="70" fill="#FFB964"/>
<rect x="230" y="250" width="138" height="138" rx="69" stroke="#FCFAF9" stroke-width="2"/>
<rect x="265" y="320" width="68" height="68" rx="34" stroke="#FCFAF9" stroke-width="2"/>
</g>
</svg>
